<svg id="Layer_1" data-name="Layer 1" xmlns="http://www.w3.org/2000/svg" viewBox="0 0 266 354"><rect x="1" y="1" width="264" height="352" rx="4" style="fill:none;stroke:#fff;stroke-linecap:round;stroke-linejoin:round;stroke-width:2px;stroke-dasharray:11.932597160339355,9.943831443786621"/><path d="M308.65,423.15a11,11,0,1,1-11-11A11,11,0,0,1,308.65,423.15Z" transform="translate(-164.64 -243.94)" style="fill:#fff"/><path d="M271.2,403.32a8.81,8.81,0,0,0-8.81,8.81v26.44a8.8,8.8,0,0,0,8.81,8.81h52.88a8.81,8.81,0,0,0,8.81-8.81V412.13a8.82,8.82,0,0,0-8.81-8.81h-5.17a8.81,8.81,0,0,1-6.23-2.58L309,397.09a8.81,8.81,0,0,0-6.23-2.58H292.47a8.84,8.84,0,0,0-6.23,2.58l-3.65,3.65a8.81,8.81,0,0,1-6.23,2.58Zm2.2,8.81a2.2,2.2,0,1,0-2.2-2.2A2.2,2.2,0,0,0,273.4,412.13Zm39.66,11a15.42,15.42,0,1,1-15.42-15.42A15.42,15.42,0,0,1,313.06,423.15Z" transform="translate(-164.64 -243.94)" style="fill:#fff;fill-rule:evenodd"/><text transform="translate(45.49 223.38)" style="font-size:14px;fill:#fff;font-family:SegoeUI-Semibold, Segoe UI;font-weight:600"><tspan style="letter-spacing:-0.0263671875em">R</tspan><tspan x="8.35" y="0">ecommended dimensions: </tspan><tspan x="56.67" y="16.8">352 x 264</tspan></text></svg>